HIERARCHY
ROOT hip
{
  OFFSET 0 0 0
  CHANNELS 6 Xposition Yposition Zposition Zrotation Yrotation Xrotation
  JOINT abdomen
  {
    OFFSET 0 20.6881 -0.73152
    CHANNELS 3 Zrotation Xrotation Yrotation
    JOINT chest
    {
      OFFSET 0 11.7043 -0.48768
      CHANNELS 3 Zrotation Xrotation Yrotation
      JOINT neck
      {
        OFFSET 0 22.1894 -2.19456
        CHANNELS 3 Zrotation Xrotation Yrotation
        JOINT head
        {
          OFFSET -0.24384 7.07133 1.2192
          CHANNELS 3 Zrotation Xrotation Yrotation
          JOINT leftEye
          {
            OFFSET 4.14528 8.04674 8.04672
            CHANNELS 3 Zrotation Xrotation Yrotation
            End Site
            {
              OFFSET 1 0 0
            }
          }
          JOINT rightEye
          {
            OFFSET -3.6576 8.04674 8.04672
            CHANNELS 3 Zrotation Xrotation Yrotation
            End Site
            {
              OFFSET 1 0 0
            }
          }
        }
      }
      JOINT rCollar
      {
        OFFSET -2.68224 19.2634 -4.8768
        CHANNELS 3 Zrotation Xrotation Yrotation
        JOINT rShldr
        {
          OFFSET -8.77824 -1.95073 1.46304
          CHANNELS 3 Zrotation Xrotation Yrotation
          JOINT rForeArm
          {
            OFFSET -28.1742 -1.7115 0.48768
            CHANNELS 3 Zrotation Xrotation Yrotation
            JOINT rHand
            {
              OFFSET -22.5879 0.773209 7.07136
              CHANNELS 3 Zrotation Xrotation Yrotation
              JOINT rThumb1
              {
                OFFSET -1.2192 -0.487915 3.41376
                CHANNELS 3 Zrotation Xrotation Yrotation
                JOINT rThumb2
                {
                  OFFSET -3.37035 -0.52449 3.41376
                  CHANNELS 3 Zrotation Xrotation Yrotation
                  End Site
                  {
                    OFFSET -1.78271 -1.18214 1.43049
                  }
                }
              }
              JOINT rIndex1
              {
                OFFSET -7.75947 0.938293 5.60832
                CHANNELS 3 Zrotation Xrotation Yrotation
                JOINT rIndex2
                {
                  OFFSET -2.54057 -0.884171 1.56538
                  CHANNELS 3 Zrotation Xrotation Yrotation
                  End Site
                  {
                    OFFSET -1.62519 -0.234802 1.16502
                  }
                }
              }
              JOINT rMid1
              {
                OFFSET -8.24714 1.18213 3.41376
                CHANNELS 3 Zrotation Xrotation Yrotation
                JOINT rMid2
                {
                  OFFSET -3.10165 -0.590103 1.0647
                  CHANNELS 3 Zrotation Xrotation Yrotation
                  End Site
                  {
                    OFFSET -2.48547 -0.328903 0.83742
                  }
                }
              }
              JOINT rRing1
              {
                OFFSET -8.82822 0.546677 1.51678
                CHANNELS 3 Zrotation Xrotation Yrotation
                JOINT rRing2
                {
                  OFFSET -2.60934 -0.819778 -0.0198488
                  CHANNELS 3 Zrotation Xrotation Yrotation
                  End Site
                  {
                    OFFSET -2.33842 -0.294052 0.168128
                  }
                }
              }
              JOINT rPinky1
              {
                OFFSET -8.27202 -0.0477905 -0.4584
                CHANNELS 3 Zrotation Xrotation Yrotation
                JOINT rPinky2
                {
                  OFFSET -1.82734 -0.647385 -0.700984
                  CHANNELS 3 Zrotation Xrotation Yrotation
                  End Site
                  {
                    OFFSET -1.69225 -0.51767 -0.607171
                  }
                }
              }
            }
          }
        }
      }
      JOINT lCollar
      {
        OFFSET 2.68224 19.2634 -4.8768
        CHANNELS 3 Zrotation Xrotation Yrotation
        JOINT lShldr
        {
          OFFSET 8.77824 -1.95073 1.46304
          CHANNELS 3 Zrotation Xrotation Yrotation
          JOINT lForeArm
          {
            OFFSET 28.1742 -1.7115 0.48768
            CHANNELS 3 Zrotation Xrotation Yrotation
            JOINT lHand
            {
              OFFSET 22.5879 0.773209 7.07136
              CHANNELS 3 Zrotation Xrotation Yrotation
              JOINT lThumb1
              {
                OFFSET 1.2192 -0.487915 3.41376
                CHANNELS 3 Zrotation Xrotation Yrotation
                JOINT lThumb2
                {
                  OFFSET 3.37035 -0.52449 3.41376
                  CHANNELS 3 Zrotation Xrotation Yrotation
                  End Site
                  {
                    OFFSET 1.78271 -1.18214 1.43049
                  }
                }
              }
              JOINT lIndex1
              {
                OFFSET 7.75947 0.938293 5.60832
                CHANNELS 3 Zrotation Xrotation Yrotation
                JOINT lIndex2
                {
                  OFFSET 2.54057 -0.884171 1.56538
                  CHANNELS 3 Zrotation Xrotation Yrotation
                  End Site
                  {
                    OFFSET 1.62519 -0.234802 1.16502
                  }
                }
              }
              JOINT lMid1
              {
                OFFSET 8.24714 1.18213 3.41376
                CHANNELS 3 Zrotation Xrotation Yrotation
                JOINT lMid2
                {
                  OFFSET 3.10165 -0.590103 1.0647
                  CHANNELS 3 Zrotation Xrotation Yrotation
                  End Site
                  {
                    OFFSET 2.48547 -0.328903 0.83742
                  }
                }
              }
              JOINT lRing1
              {
                OFFSET 8.82822 0.546677 1.51678
                CHANNELS 3 Zrotation Xrotation Yrotation
                JOINT lRing2
                {
                  OFFSET 2.60934 -0.819778 -0.0198488
                  CHANNELS 3 Zrotation Xrotation Yrotation
                  End Site
                  {
                    OFFSET 2.33842 -0.294052 0.168128
                  }
                }
              }
              JOINT lPinky1
              {
                OFFSET 8.27202 -0.0477905 -0.4584
                CHANNELS 3 Zrotation Xrotation Yrotation
                JOINT lPinky2
                {
                  OFFSET 1.82734 -0.647385 -0.700984
                  CHANNELS 3 Zrotation Xrotation Yrotation
                  End Site
                  {
                    OFFSET 1.69225 -0.51767 -0.607171
                  }
                }
              }
            }
          }
        }
      }
    }
  }
  JOINT rButtock
  {
    OFFSET -8.77824 4.35084 1.2192
    CHANNELS 3 Zrotation Xrotation Yrotation
    JOINT rThigh
    {
      OFFSET 0 -1.70687 -2.19456
      CHANNELS 3 Zrotation Xrotation Yrotation
      JOINT rShin
      {
        OFFSET 0 -36.8199 0.73152
        CHANNELS 3 Zrotation Xrotation Yrotation
        JOINT rFoot
        {
          OFFSET 0.73152 -45.1104 -5.12064
          CHANNELS 3 Zrotation Xrotation Yrotation
          End Site
          {
            OFFSET -1.1221 -3.69964 12.103
          }
        }
      }
    }
  }
  JOINT lButtock
  {
    OFFSET 8.77824 4.35084 1.2192
    CHANNELS 3 Zrotation Xrotation Yrotation
    JOINT lThigh
    {
      OFFSET 0 -1.70687 -2.19456
      CHANNELS 3 Zrotation Xrotation Yrotation
      JOINT lShin
      {
        OFFSET 0 -36.8199 0.73152
        CHANNELS 3 Zrotation Xrotation Yrotation
        JOINT lFoot
        {
          OFFSET -0.73152 -45.1104 -5.12064
          CHANNELS 3 Zrotation Xrotation Yrotation
          End Site
          {
            OFFSET 1.1221 -3.69964 12.103
          }
        }
      }
    }
  }
}
MOTION
Frames:	4
Frame Time:	0.00833333
118.238 81.783 -58.6267 -537.071 -72.525 187.907 4.95206 1.41068 0.547775 1.33365 6.36458 0.0735729 -1.37599 -0.76666 -0.589853 -0.852509 -0.723983 -1.21692 -0.0 0.0 0.0 -0.0 0.0 0.0 1.65591e-15 -5.68913e-13 1.81441e-13 61.316 19.9995 22.1691 -18.2391 -10.9461 34.5587 -0.165356 11.5122 1.64029 -3.38416e-09 -2.29872e-09 -8.94461e-10 -5.86035e-09 -4.0131e-09 -1.50905e-09 -3.38416e-09 -2.2987e-09 -8.9448e-10 7.73091 5.47488 0.417314 -3.38417e-09 -2.29871e-09 -8.94464e-10 2.90554 0.965183 0.102902 -3.38416e-09 -2.29871e-09 -8.94464e-10 10.2786 0.731801 0.0259123 -3.38416e-09 -2.29871e-09 -8.94452e-10 2.22167 -0.733487 -0.20892 1.52485e-15 -5.68931e-13 1.81143e-13 -58.3113 43.6791 -27.436 16.3613 -9.02722 -30.439 0.00214459 -1.3222 0.185857 -7.4769e-10 2.54269e-09 -3.37158e-10 -1.2854e-09 4.40144e-09 -5.87216e-10 -7.47697e-10 2.54269e-09 -3.37155e-10 -7.73091 5.47488 -0.417314 -7.47693e-10 2.54268e-09 -3.37158e-10 -2.90554 0.965183 -0.102902 -7.47696e-10 2.54269e-09 -3.37161e-10 -10.2786 0.731801 -0.0259123 -7.47687e-10 2.54269e-09 -3.37158e-10 -2.22167 -0.733487 0.20892 -2.03217e-16 0.0 -3.88251e-19 4.27418 -36.1177 12.3298 -0.185909 28.8693 0.238433 -0.829108 14.8984 2.97065 2.03217e-16 0.0 3.88251e-19 6.09132 -21.1145 7.69679 0.585583 50.1589 -1.0957 3.32647 -6.08055 12.4004
117.893 81.7458 -58.8579 -537.212 -72.6028 188.041 4.93926 1.37744 0.833488 1.33413 6.46543 0.150035 -1.35135 -0.78245 -0.668133 -0.919651 -0.57062 -1.38395 -0.0 0.0 0.0 -0.0 0.0 0.0 2.03028e-14 -5.79388e-13 1.51873e-13 61.0104 19.2325 22.6027 -18.4537 -11.1823 35.048 -0.161523 11.3691 1.6194 -2.41215e-09 -1.6566e-09 -6.82415e-10 -4.17723e-09 -2.89242e-09 -1.15262e-09 -2.41215e-09 -1.65658e-09 -6.82432e-10 7.73091 5.47488 0.417314 -2.41215e-09 -1.65659e-09 -6.82416e-10 2.90554 0.965183 0.102902 -2.41214e-09 -1.65659e-09 -6.82418e-10 10.2786 0.731801 0.0259123 -2.41215e-09 -1.65659e-09 -6.82407e-10 2.22167 -0.733487 -0.20892 2.0201e-14 -5.79397e-13 1.51583e-13 -59.2147 43.6078 -26.2677 16.636 -9.29382 -31.0215 0.00861061 -2.74652 0.38603 -6.50087e-10 2.09807e-09 -3.34093e-10 -1.11818e-09 3.63241e-09 -5.81518e-10 -6.50092e-10 2.09807e-09 -3.34088e-10 -7.73091 5.47488 -0.417314 -6.50089e-10 2.09806e-09 -3.34095e-10 -2.90554 0.965183 -0.102902 -6.50092e-10 2.09807e-09 -3.34097e-10 -10.2786 0.731801 -0.0259123 -6.50085e-10 2.09807e-09 -3.34096e-10 -2.22167 -0.733487 0.20892 -2.03217e-16 0.0 -3.88251e-19 4.30145 -36.0604 12.2535 -0.188686 29.2217 0.259501 -0.906874 14.9331 3.46294 2.03217e-16 0.0 3.88251e-19 5.80781 -21.8826 7.59133 0.587655 50.297 -1.11295 3.52558 -6.96481 12.4419
117.55 81.709 -59.077 -537.362 -72.7572 188.196 4.92455 1.33062 1.0609 1.34588 6.56721 0.20905 -1.32156 -0.784341 -0.738325 -1.00304 -0.459622 -1.53552 -0.0 0.0 0.0 -0.0 0.0 0.0 5.25116e-14 -5.51704e-13 8.38405e-14 60.7189 18.4075 23.0086 -18.6689 -11.422 35.5461 -0.158932 11.2621 1.60384 -5.92798e-10 -3.54229e-10 -3.15386e-10 -1.0273e-09 -6.20785e-10 -5.37553e-10 -5.92797e-10 -3.54218e-10 -3.15401e-10 7.73091 5.47488 0.417314 -5.92801e-10 -3.54227e-10 -3.15384e-10 2.90554 0.965183 0.102902 -5.92793e-10 -3.54227e-10 -3.15388e-10 10.2786 0.731801 0.0259123 -5.928e-10 -3.54227e-10 -3.15379e-10 2.22167 -0.733487 -0.20892 5.24501e-14 -5.517e-13 8.35641e-14 -60.0413 43.5179 -25.1534 16.9328 -9.58671 -31.6596 0.0192291 -4.17341 0.587203 -4.95934e-10 1.00084e-09 -3.4324e-10 -8.55235e-10 1.73395e-09 -5.95758e-10 -4.95936e-10 1.00084e-09 -3.43234e-10 -7.73091 5.47488 -0.417314 -4.95934e-10 1.00084e-09 -3.43245e-10 -2.90554 0.965183 -0.102902 -4.95938e-10 1.00084e-09 -3.43247e-10 -10.2786 0.731801 -0.0259123 -4.95931e-10 1.00084e-09 -3.43249e-10 -2.22167 -0.733487 0.20892 -2.03217e-16 0.0 -3.88251e-19 4.27831 -35.9972 12.1347 -0.191303 29.5644 0.28077 -0.982438 14.9254 3.95919 2.03217e-16 0.0 3.88251e-19 5.47789 -22.6732 7.40638 0.588155 50.3943 -1.12905 3.7649 -7.91887 12.5789
117.21 81.6713 -59.2872 -537.522 -72.9684 188.372 4.92026 1.27867 1.23955 1.36223 6.65864 0.254045 -1.29623 -0.776306 -0.802037 -1.08271 -0.372155 -1.67253 -0.0 0.0 0.0 -0.0 0.0 0.0 8.47215e-14 -5.0947e-13 1.01415e-14 60.4532 17.5416 23.3575 -18.9018 -11.6877 36.0849 -0.154013 11.0875 1.57833 1.30646e-09 1.04893e-09 4.79315e-11 2.2608e-09 1.82594e-09 7.02376e-11 1.30646e-09 1.04893e-09 4.79202e-11 7.73091 5.47488 0.417314 1.30646e-09 1.04892e-09 4.79362e-11 2.90554 0.965183 0.102902 1.30646e-09 1.04892e-09 4.79312e-11 10.2786 0.731801 0.0259123 1.30646e-09 1.04893e-09 4.79377e-11 2.22167 -0.733487 -0.20892 8.46982e-14 -5.09456e-13 9.87944e-15 -60.835 43.3873 -24.067 17.2223 -9.87645 -32.2924 0.0348305 -5.48912 0.773572 -3.57289e-10 -2.05571e-10 -3.53353e-10 -6.19468e-10 -3.5356e-10 -6.11573e-10 -3.57288e-10 -2.05567e-10 -3.53344e-10 -7.73091 5.47488 -0.417314 -3.57287e-10 -2.05568e-10 -3.53361e-10 -2.90554 0.965183 -0.102902 -3.57291e-10 -2.05566e-10 -3.53361e-10 -10.2786 0.731801 -0.0259123 -3.57286e-10 -2.05566e-10 -3.53369e-10 -2.22167 -0.733487 0.20892 -2.03217e-16 0.0 -3.88251e-19 4.2233 -35.9162 11.9707 -0.193768 29.8881 0.301559 -1.05405 14.8804 4.45068 2.03217e-16 0.0 3.88251e-19 5.12311 -23.4663 7.15356 0.587291 50.4505 -1.14336 4.02216 -8.88639 12.7584
